<?xml version="1.0" standalone="no"?>
<!DOCTYPE svg PUBLIC "-//W3C//DTD SVG 20010904//EN"
 "http://www.w3.org/TR/2001/REC-SVG-20010904/DTD/svg10.dtd">
<svg version="1.0" xmlns="http://www.w3.org/2000/svg"
 width="700.000000pt" height="700.000000pt" viewBox="0 0 700.000000 700.000000"
 preserveAspectRatio="xMidYMid meet">
<metadata>
Created by potrace 1.11, written by Peter Selinger 2001-2013
</metadata>
<g transform="translate(0.000000,700.000000) scale(0.100000,-0.100000)"
fill="#000000" stroke="none">
<path d="M797 5964 c-1 -1 -29 -5 -62 -8 -332 -33 -614 -274 -707 -604 -23
-83 -30 -267 -14 -367 26 -159 145 -360 283 -475 133 -111 332 -187 495 -190
l28 0 2 -1567 3 -1568 27 -47 c21 -35 41 -53 81 -72 l53 -26 2529 2 2530 3 42
29 c27 18 51 46 68 79 l25 51 0 1558 0 1558 28 1 c74 2 153 16 227 41 293 100
504 347 555 649 14 86 4 264 -20 347 -94 331 -372 564 -712 598 -47 5 -5456
12 -5461 8z m3828 -428 c343 -91 421 -546 127 -735 -89 -57 -140 -68 -316 -70
-106 -2 -171 -7 -192 -16 -45 -19 -83 -54 -107 -100 l-21 -40 -1 -1562 0
-1563 -1442 0 -1443 0 -2 1573 -3 1572 -25 35 c-61 87 -79 93 -295 100 -177 6
-182 7 -250 39 -232 108 -313 377 -178 594 47 76 130 138 223 168 52 17 167
18 1965 18 1560 1 1919 -2 1960 -13z m1666 -2 c183 -54 303 -218 295 -406 -6
-159 -90 -285 -234 -355 l-77 -37 -160 -3 c-88 -2 -179 -9 -203 -15 -53 -13
-114 -73 -130 -126 -9 -29 -12 -431 -12 -1591 l0 -1551 -622 2 -622 3 -1 1433
0 1432 30 1 c285 8 570 190 699 446 35 71 62 147 75 213 33 164 9 366 -59 500
-17 33 -30 62 -30 65 0 3 224 5 498 5 427 0 506 -2 553 -16z"/>
<path d="M2591 4299 c-22 -10 -206 -187 -477 -460 -425 -427 -442 -446 -452
-492 -12 -58 -7 -98 19 -148 45 -88 140 -127 243 -97 35 10 106 76 479 447
244 242 447 453 458 474 88 170 -94 357 -270 276z"/>
<path d="M3420 3485 c-44 -20 -894 -866 -920 -916 -54 -104 -13 -227 93 -278
48 -23 92 -26 152 -10 34 9 107 77 478 447 316 315 444 450 461 484 43 86 13
192 -70 251 -51 36 -140 46 -194 22z"/>
</g>
</svg>
