<svg id="Capa_1" enable-background="new 0 0 512 512" height="512" viewBox="0 0 512 512" width="512" xmlns="http://www.w3.org/2000/svg" xmlns:xlink="http://www.w3.org/1999/xlink">
<g><g><g><path d="m196 270c-8.284 0-15 6.716-15 15v60c0 8.284 6.716 15 15 15s15-6.716 15-15v-60c0-8.284-6.716-15-15-15zm180-210c-8.104 0-16.084.912-23.86 2.722-16.54-37.584-54.13-62.722-96.14-62.722s-79.6 25.138-96.14 62.722c-7.776-1.81-15.756-2.722-23.86-2.722-57.897 0-105 47.103-105 105 0 40.79 23.715 77.674 60 94.894v237.106c0 8.284 6.716 15 15 15h300c8.284 0 15-6.716 15-15 0-10.993 0-228.078 0-237.106 36.285-17.22 60-54.104 60-94.894 0-57.897-47.103-105-105-105zm15 422h-270v-61h270zm10.001-246.264c-5.993 2.118-10.001 7.785-10.001 14.143v141.121h-270v-141.121c0-6.357-4.008-12.024-10.001-14.143-29.906-10.57-49.999-38.996-49.999-70.736 0-41.355 33.645-75 75-75 9.548 0 18.842 1.765 27.625 5.247 8.305 3.293 17.649-1.371 20.001-10.004 8.854-32.526 38.615-55.243 72.374-55.243s63.52 22.717 72.374 55.242c2.349 8.622 11.683 13.302 20.001 10.004 8.783-3.481 18.077-5.246 27.625-5.246 41.355 0 75 33.645 75 75 0 31.74-20.093 60.166-49.999 70.736zm-145.001 34.264c-8.284 0-15 6.716-15 15v60c0 8.284 6.716 15 15 15s15-6.716 15-15v-60c0-8.284-6.716-15-15-15zm60 0c-8.284 0-15 6.716-15 15v60c0 8.284 6.716 15 15 15s15-6.716 15-15v-60c0-8.284-6.716-15-15-15z" fill="#ffffff"/></g></g></g></svg>