<?xml version="1.0" encoding="UTF-8" standalone="no"?><!DOCTYPE svg PUBLIC "-//W3C//DTD SVG 1.1//EN" "http://www.w3.org/Graphics/SVG/1.1/DTD/svg11.dtd"><svg xmlns="http://www.w3.org/2000/svg" xmlns:xlink="http://www.w3.org/1999/xlink" version="1.1" preserveAspectRatio="xMidYMid meet" viewBox="63.70688998857912 62.49067377236395 525.1267605633802 525.1267605633803" width="50" height="50">

<path d="M585.83 324.05C585.83 467.86 469.08 584.62 325.27 584.62C181.46 584.62 64.71 467.86 64.71 324.05C64.71 180.25 181.46 63.49 325.27 63.49C469.08 63.49 585.83 180.25 585.83 324.05Z" id="apO8CKzLz"/><path d="M563.11 324.05C563.11 455.32 456.54 561.89 325.27 561.89C194 561.89 87.43 455.32 87.43 324.05C87.43 192.79 194 86.22 325.27 86.22C456.54 86.22 563.11 192.79 563.11 324.05Z" id="a1Pi2KCybY"/><path d="M553.65 379.42L475.27 287.53L223.92 534.82" id="b1QDMjhAv"/><path d="M92.84 378.07L191.49 265.91L344.32 415.91" id="av9vY2KoZ"/><path d="" id="asynu03sk"/><path d="M439.46 320L331.49 172.66L230.68 302.43" id="ak0783MI"/><g><g><use xlink:href="#apO8CKzLz" opacity="1" fill="#3f3f3f" fill-opacity="1"/></g><g><g><use xlink:href="#a1Pi2KCybY" opacity="1" fill-opacity="0" stroke="#ffffff" stroke-width="20" stroke-opacity="1"/></g></g><g><g><use xlink:href="#b1QDMjhAv" opacity="1" fill-opacity="0" stroke="#ffffff" stroke-width="20" stroke-opacity="1"/></g></g><g><g><use xlink:href="#av9vY2KoZ" opacity="1" fill-opacity="0" stroke="#ffffff" stroke-width="20" stroke-opacity="1"/></g></g><g><g><use xlink:href="#asynu03sk" opacity="1" fill-opacity="0" stroke="#ffffff" stroke-width="13" stroke-opacity="1"/></g></g><g><g><use xlink:href="#ak0783MI" opacity="1" fill-opacity="0" stroke="#ffffff" stroke-width="20" stroke-opacity="1"/></g></g></g></svg>